# xmcd
#
# Track frame offsets:
# 150
# 13395
# 25692
# 39582
# 52290
# 68398
# 83083
# 100384
# 113981
# 125989
# 139748
# 149555
#
# Disc length: 2150 seconds
#
#
# Revision: 2
# Processed by: cddbd v1.5.1PL2 Copyright (c) Steve Scherf et al.
# Submitted via: FreeRIP 2.944 
#
DISCID=b208640c
DTITLE=Lynn Anderson - Lynn Anderson
DYEAR=2001
DGENRE=Country
TTITLE0=Rose Garden
TTITLE1=Stand by Your Man
TTITLE2=Cry
TTITLE3=Top of the World
TTITLE4=The Devil Went Down to Georgia
TTITLE5=We've ONly Just Begun
TTITLE6=Close to You
TTITLE7=Talking in Your Sleep
TTITLE8=How Can I Unlove You
TTITLE9=Paradise
TTITLE10=What a Man my Man is
TTITLE11=You Don't Have to Say You Love me
EXTD=
EXTT0=
EXTT1=
EXTT2=
EXTT3=
EXTT4=
EXTT5=
EXTT6=
EXTT7=
EXTT8=
EXTT9=
EXTT10=
EXTT11=
PLAYORDER=
